<svg xmlns="http://www.w3.org/2000/svg" width="256" height="256"><path fill-opacity=".016" d="M0 128.004v128.004l128.25-.254 128.25-.254.254-127.75L257.008 0H0v128.004m.485.496c0 70.4.119 99.053.265 63.672.146-35.38.146-92.98 0-128C.604 29.153.485 58.1.485 128.5" fill="#1976D2" fill-rule="evenodd"/><path fill-opacity=".143" d="M95.698 35.636c-.384.383-.698 3.097-.698 6.031V47H72v12h23v13.934l-11.25.283-11.25.283-.292 7.75-.292 7.75H95v115H71.916l.292 7.75.292 7.75h42c41.83 0 42.026-.01 48.498-2.394 8.485-3.126 13.261-6.215 19.222-12.433 9.478-9.885 14.195-24.916 11.992-38.211-3.241-19.562-19.027-35.419-38.467-38.64l-6.663-1.104-.291-18.821-.291-18.822 7-.287 7-.288v-15l-7-.286-7-.287.33-6.92.331-6.919 6.669-.294 6.67-.294v-11l-6.701-.295-6.702-.294-.298-5.706-.299-5.705-7.75-.292-7.75-.292V47h-13.9l-.3-5.75-.3-5.75-11.052-.281c-6.079-.154-11.367.033-11.75.417M119 66v7h14V59h-14v7m0 42v19h14V89h-14v19m0 65.5V204h14v-61h-14v30.5m30-.017v30.74l3.75-.68c19.318-3.503 30.998-22.995 24.341-40.622-3.929-10.405-13.012-17.841-23.841-19.518l-4.25-.659v30.739" fill="#1976D2" fill-rule="evenodd"/><path fill-opacity=".53" d="M96 41.5V47H73v12h23.088l-.294 7.25-.294 7.25-11.25.283-11.25.283V89h23v115H73v15.08l43.25-.29c42.169-.283 43.388-.346 48.75-2.533 11.174-4.557 21.805-15.105 26.118-25.913 1.96-4.913 2.335-7.675 2.357-17.344.024-10.901-.143-11.854-3.19-18.288-6.207-13.104-20.717-24.609-33.052-26.208-10.287-1.333-9.233 1.011-9.233-20.523V89h14V74.091l-6.75-.295-6.75-.296-.294-7.25-.294-7.25H162V47h-14V36h-15v11h-14V36H96v5.5m23 25V74h14V59h-14v7.5m0 42V128h14V89h-14v19.5m29.532 34.302c-.293.292-.532 14.244-.532 31.004v30.473l4.932-.584c14.599-1.73 26.065-14.823 26.067-29.767.001-3.614-.715-8.674-1.591-11.244-1.996-5.858-9.116-13.88-14.732-16.599-4.475-2.166-13.229-4.198-14.144-3.283M119 173.5V204h14v-61h-14v30.5" fill="#1976D2" fill-rule="evenodd"/><path fill-opacity=".792" d="M96 42v6H73v9.934l11.25.283 11.25.283.292 7.75.292 7.75H73v14h23v117H73v14.118l42.25-.315c40.993-.306 42.429-.382 48.25-2.569 17.621-6.617 28.913-21.666 30.226-40.284 1.501-21.277-12.904-40.884-34.226-46.589-2.75-.735-6.463-1.343-8.25-1.349L148 128V88h14V74h-14V58h14V48h-14V36h-13.9l-.3 5.75-.3 5.75h-15l-.3-5.75-.3-5.75H96v6m22.706 16.627c-.388.388-.706 4.025-.706 8.082v7.375l7.75-.292 7.75-.292v-15l-7.044-.29c-3.874-.159-7.361.029-7.75.417m0 30c-.388.388-.706 9.425-.706 20.082v19.375l7.75-.292 7.75-.292v-39l-7.044-.29c-3.874-.159-7.361.029-7.75.417m-.47 84.581.264 31.292h15v-62l-7.764-.292-7.765-.293.265 31.293m29.764.266v31.702l4.25-.695c10.712-1.751 20.461-9.171 24.939-18.981 3.222-7.061 3.119-18.025-.236-25-4.59-9.542-13.913-16.472-24.246-18.021l-4.707-.706v31.701" fill="#1976D2" fill-rule="evenodd"/></svg>