<?xml version="1.0" encoding="UTF-8" standalone="no"?>
<!-- Created with Inkscape (http://www.inkscape.org/) -->

<svg
   width="210mm"
   height="210mm"
   viewBox="0 0 210 210"
   version="1.1"
   id="svg1113"
   inkscape:version="1.1.2 (0a00cf5339, 2022-02-04)"
   sodipodi:docname="logo.svg"
   xmlns:inkscape="http://www.inkscape.org/namespaces/inkscape"
   xmlns:sodipodi="http://sodipodi.sourceforge.net/DTD/sodipodi-0.dtd"
   xmlns="http://www.w3.org/2000/svg"
   xmlns:svg="http://www.w3.org/2000/svg">
  <sodipodi:namedview
     id="namedview1115"
     pagecolor="#ffffff"
     bordercolor="#666666"
     borderopacity="1.0"
     inkscape:pageshadow="2"
     inkscape:pageopacity="0.0"
     inkscape:pagecheckerboard="0"
     inkscape:document-units="mm"
     showgrid="false"
     inkscape:zoom="0.47307606"
     inkscape:cx="485.12284"
     inkscape:cy="431.2203"
     inkscape:window-width="1920"
     inkscape:window-height="1001"
     inkscape:window-x="0"
     inkscape:window-y="0"
     inkscape:window-maximized="1"
     inkscape:current-layer="layer1"
     height="210mm" />
  <defs
     id="defs1110" />
  <g
     inkscape:label="Слой 1"
     inkscape:groupmode="layer"
     id="layer1">
    <circle
       style="fill:#ffffff;fill-opacity:1;stroke-width:0.214458"
       id="path20413-3"
       cx="130.00012"
       cy="72.474998"
       r="100"
       transform="rotate(15.938114)"
       inkscape:export-filename="/home/pin/Desktop/yat.png"
       inkscape:export-xdpi="65.02401"
       inkscape:export-ydpi="65.02401" />
    <path
       style="fill:#3e007a;fill-opacity:1;stroke-width:0.185537"
       d="m 61.994884,170.82131 v -5.84441 h 8.99854 8.99856 V 119.7986 74.620292 h -8.99856 -8.99854 v -5.844409 -5.84443 h 9.0012 9.00119 l -0.0491,-5.79803 -0.049,-5.79804 -8.95217,-0.048 -8.95217,-0.048 v -4.45111 -4.45112 h 8.99857 8.99854 v -4.45289 -4.45288 h 8.90579 8.90579 v 4.45288 4.45289 h 5.658886 5.65888 v -4.45289 -4.45288 h 5.84443 5.84442 v 4.45288 4.45289 h 5.47334 5.47336 v 4.45008 4.45011 l -5.42697,0.0491 -5.42696,0.0491 -0.0491,5.79806 -0.0488,5.79802 h 5.47599 5.47599 v 5.84443 5.844399 h -5.47442 -5.47443 l 0.0476,15.16769 0.0476,15.167648 2.13391,0.12549 c 9.11989,0.5361 17.52165,4.39014 23.84412,10.93776 2.97672,3.08269 4.69823,5.56002 6.56255,9.44389 2.98083,6.20967 4.06994,12.68698 3.27503,19.47728 -1.81871,15.53557 -13.49014,28.05485 -28.95076,31.05388 -3.30278,0.64069 -4.94743,0.67187 -35.430286,0.67187 h -30.343 z m 47.151186,-6.16909 c 0.0374,-0.17857 0.0465,-11.0325 0.0203,-24.11983 l -0.0478,-23.79515 h -5.65748 -5.657476 v 24.11982 24.11984 h 5.637236 c 5.2192,0 5.6423,-0.0238 5.70527,-0.32468 z m 17.79545,-0.39689 c 4.77279,-1.23315 8.34068,-3.32691 11.78078,-6.91332 3.30131,-3.44172 5.49781,-7.84818 6.31409,-12.66672 0.41438,-2.44611 0.28308,-6.93356 -0.2665,-9.12384 -1.49574,-5.95797 -4.59642,-10.67557 -9.31718,-14.17578 -1.65774,-1.22911 -4.89414,-2.89238 -6.84987,-3.52026 -1.78397,-0.57271 -4.53105,-1.08105 -6.21549,-1.15008 l -1.48429,-0.0609 -0.0472,24.19461 -0.0472,24.19461 2.00383,-0.1147 c 1.28498,-0.0734 2.76616,-0.31148 4.12889,-0.66369 z M 109.12133,89.834322 v -15.21403 h -5.6589 -5.658876 v 15.21403 15.214068 h 5.658876 5.6589 z m 0,-32.747279 v -5.84445 h -5.6589 -5.658876 v 5.84445 5.84441 h 5.658876 5.6589 z"
       id="path1151"
       inkscape:export-filename="/home/pin/Desktop/yat.png"
       inkscape:export-xdpi="65.02401"
       inkscape:export-ydpi="65.02401" />
  </g>
</svg>
